<svg xmlns="http://www.w3.org/2000/svg" width="512" height="512" viewBox="0 0 512 512">
    <path d="
        M144 256
        m0 -96
        l-80 0
        a32 32 0 0 0 -32 32
        l0 128
        a32 32 0 0 0 32 32
        l80 0
        l96 128
        c6 8 16 16 16 0
        l0 -448
        c0 -16 -10 -8 -16 0
        l-96 128z
        M270 256
        m24 -64
        a16 16 0 0 1 32 -32
        a128 128 0 0 1 0 192
        a16 16 0 0 1 -32 -32
        a96 96 0 0 0 0 -128z
        M270 256
        m96 -128
        a16 16 0 0 1 32 -32
        a213.333 213.333 0 0 1 0 320
        a16 16 0 0 1 -32 -32
        a170.667 170.667 0 0 0 0 -256z
    "/>
</svg>